<mxfile host="app.diagrams.net" agent="Mozilla/5.0 (Windows NT 10.0; Win64; x64) AppleWebKit/537.36 (KHTML, like Gecko) Chrome/127.0.0.0 Safari/537.36 Edg/127.0.0.0" version="24.7.6" pages="2">
  <diagram name="第 1 页" id="_Z_FD3GC5NXYatu7sEEs">
    <mxGraphModel dx="1442" dy="967" grid="1" gridSize="10" guides="1" tooltips="1" connect="1" arrows="1" fold="1" page="0" pageScale="1" pageWidth="827" pageHeight="1169" math="0" shadow="0">
      <root>
        <mxCell id="0" />
        <mxCell id="1" parent="0" />
        <mxCell id="d6EP5hR2uDW9PPu6evcW-36" value="&lt;span style=&quot;font-size: 16px;&quot;&gt;&lt;b&gt;&amp;nbsp;&lt;/b&gt;&lt;/span&gt;" style="rounded=0;whiteSpace=wrap;html=1;fillColor=#cce5ff;strokeColor=#36393d;" vertex="1" parent="1">
          <mxGeometry x="120" y="960" width="960" height="890" as="geometry" />
        </mxCell>
        <mxCell id="eMWsL_UccbmSe35L0zAl-1" value="&lt;font style=&quot;font-size: 15px;&quot;&gt;UsernamePassword&lt;/font&gt;&lt;div style=&quot;font-size: 15px;&quot;&gt;&lt;font style=&quot;font-size: 15px;&quot;&gt;AuthenticationFilter&lt;/font&gt;&lt;/div&gt;" style="rounded=0;whiteSpace=wrap;html=1;strokeColor=#b85450;fillColor=#f8cecc;fontStyle=1;fontSize=15;" parent="1" vertex="1">
          <mxGeometry x="80" y="10" width="170" height="90" as="geometry" />
        </mxCell>
        <mxCell id="eMWsL_UccbmSe35L0zAl-4" value="&lt;span style=&quot;font-size: 15px;&quot;&gt;AuthenticationManager&lt;/span&gt;" style="rounded=0;whiteSpace=wrap;html=1;strokeColor=#6c8ebf;fillColor=#dae8fc;fontStyle=1;fontSize=15;" parent="1" vertex="1">
          <mxGeometry x="329" y="10" width="170" height="90" as="geometry" />
        </mxCell>
        <mxCell id="eMWsL_UccbmSe35L0zAl-5" value="&lt;span style=&quot;font-size: 15px;&quot;&gt;DaoAuthenticationProvider&lt;/span&gt;" style="rounded=0;whiteSpace=wrap;html=1;strokeColor=#82b366;fillColor=#d5e8d4;fontStyle=1;fontSize=15;" parent="1" vertex="1">
          <mxGeometry x="570" y="10" width="170" height="90" as="geometry" />
        </mxCell>
        <mxCell id="eMWsL_UccbmSe35L0zAl-6" value="&lt;span style=&quot;font-size: 15px;&quot;&gt;UserDetailService&lt;/span&gt;" style="rounded=0;whiteSpace=wrap;html=1;strokeColor=#9673a6;fillColor=#e1d5e7;fontStyle=1;fontSize=15;" parent="1" vertex="1">
          <mxGeometry x="820" y="10" width="170" height="90" as="geometry" />
        </mxCell>
        <mxCell id="eMWsL_UccbmSe35L0zAl-7" value="&lt;span style=&quot;font-size: 15px;&quot;&gt;SecurityContextHolder&lt;/span&gt;" style="rounded=0;whiteSpace=wrap;html=1;strokeColor=#b46504;fillColor=#fad7ac;fontStyle=1;fontSize=15;" parent="1" vertex="1">
          <mxGeometry x="1050" y="10" width="170" height="90" as="geometry" />
        </mxCell>
        <mxCell id="eMWsL_UccbmSe35L0zAl-8" value="" style="endArrow=none;dashed=1;html=1;dashPattern=8 8;strokeWidth=2;rounded=0;strokeColor=#E07A5F;fontColor=#393C56;fillColor=#F2CC8F;fontStyle=1;fontSize=15;" parent="1" source="eMWsL_UccbmSe35L0zAl-21" edge="1">
          <mxGeometry width="50" height="50" relative="1" as="geometry">
            <mxPoint x="160" y="580" as="sourcePoint" />
            <mxPoint x="160" y="100" as="targetPoint" />
          </mxGeometry>
        </mxCell>
        <mxCell id="eMWsL_UccbmSe35L0zAl-22" value="" style="endArrow=none;dashed=1;html=1;dashPattern=12 12;strokeWidth=2;rounded=0;strokeColor=#E07A5F;fontColor=#393C56;fillColor=#F2CC8F;fontStyle=1;fontSize=15;" parent="1" target="eMWsL_UccbmSe35L0zAl-21" edge="1">
          <mxGeometry width="50" height="50" relative="1" as="geometry">
            <mxPoint x="160" y="730" as="sourcePoint" />
            <mxPoint x="160" y="100" as="targetPoint" />
            <Array as="points">
              <mxPoint x="160" y="800" />
            </Array>
          </mxGeometry>
        </mxCell>
        <mxCell id="eMWsL_UccbmSe35L0zAl-33" style="edgeStyle=orthogonalEdgeStyle;rounded=0;orthogonalLoop=1;jettySize=auto;html=1;strokeColor=#E07A5F;fontColor=#393C56;fillColor=#F2CC8F;fontSize=15;fontStyle=1" parent="1" edge="1">
          <mxGeometry relative="1" as="geometry">
            <mxPoint x="390" y="310" as="targetPoint" />
            <mxPoint x="170" y="310" as="sourcePoint" />
          </mxGeometry>
        </mxCell>
        <mxCell id="eMWsL_UccbmSe35L0zAl-70" style="edgeStyle=orthogonalEdgeStyle;rounded=0;orthogonalLoop=1;jettySize=auto;html=1;strokeColor=#b85450;fontColor=#393C56;fillColor=#f8cecc;fontSize=15;fontStyle=1" parent="1" edge="1">
          <mxGeometry relative="1" as="geometry">
            <mxPoint x="1119.9999999999995" y="690" as="targetPoint" />
            <mxPoint x="170" y="690.0588235294119" as="sourcePoint" />
          </mxGeometry>
        </mxCell>
        <mxCell id="eMWsL_UccbmSe35L0zAl-21" value="" style="line;strokeWidth=12;direction=south;html=1;strokeColor=#b85450;fillColor=#f8cecc;fontStyle=1;fontSize=15;" parent="1" vertex="1">
          <mxGeometry x="150" y="210" width="20" height="500" as="geometry" />
        </mxCell>
        <mxCell id="eMWsL_UccbmSe35L0zAl-24" value="&lt;font style=&quot;font-size: 15px;&quot;&gt;1.用户提交用户名和密码&lt;/font&gt;" style="text;html=1;align=center;verticalAlign=middle;whiteSpace=wrap;rounded=0;fontColor=#393C56;fontStyle=1;fontSize=15;" parent="1" vertex="1">
          <mxGeometry x="-60" y="160" width="170" height="30" as="geometry" />
        </mxCell>
        <mxCell id="eMWsL_UccbmSe35L0zAl-28" value="" style="endArrow=classic;html=1;rounded=0;strokeColor=#E07A5F;fontColor=#393C56;fillColor=#F2CC8F;fontStyle=1;fontSize=15;" parent="1" edge="1">
          <mxGeometry width="50" height="50" relative="1" as="geometry">
            <mxPoint x="-60" y="200" as="sourcePoint" />
            <mxPoint x="140" y="200" as="targetPoint" />
          </mxGeometry>
        </mxCell>
        <mxCell id="eMWsL_UccbmSe35L0zAl-30" value="&lt;font style=&quot;font-size: 15px;&quot;&gt;2.通过Authentication接口的实现子类UsernamePasswordAuthenticationToken封装Authentication对象，这里只有用户名和密码，还没有权限&lt;/font&gt;" style="text;html=1;align=center;verticalAlign=middle;whiteSpace=wrap;rounded=0;fontColor=#393C56;fontStyle=1;fontSize=15;" parent="1" vertex="1">
          <mxGeometry x="160" y="160" width="300" height="60" as="geometry" />
        </mxCell>
        <mxCell id="eMWsL_UccbmSe35L0zAl-35" value="" style="endArrow=none;html=1;strokeWidth=2;rounded=0;strokeColor=#6c8ebf;fontColor=#393C56;fillColor=#dae8fc;fontStyle=1;dashed=1;dashPattern=8 8;fontSize=15;" parent="1" source="eMWsL_UccbmSe35L0zAl-32" edge="1">
          <mxGeometry width="50" height="50" relative="1" as="geometry">
            <mxPoint x="410" y="580" as="sourcePoint" />
            <mxPoint x="412" y="100" as="targetPoint" />
          </mxGeometry>
        </mxCell>
        <mxCell id="eMWsL_UccbmSe35L0zAl-36" value="&lt;font style=&quot;font-size: 15px;&quot;&gt;3.调用AuthenticationManager的方法authenticate()进行认证&lt;/font&gt;" style="text;html=1;align=center;verticalAlign=middle;whiteSpace=wrap;rounded=0;fontColor=#393C56;fontStyle=1;fontSize=15;" parent="1" vertex="1">
          <mxGeometry x="145" y="280" width="250" height="30" as="geometry" />
        </mxCell>
        <mxCell id="eMWsL_UccbmSe35L0zAl-37" value="" style="endArrow=none;html=1;strokeWidth=2;rounded=0;strokeColor=#6c8ebf;fontColor=#393C56;fillColor=#dae8fc;fontStyle=1;dashed=1;dashPattern=8 8;fontSize=15;" parent="1" target="eMWsL_UccbmSe35L0zAl-32" edge="1">
          <mxGeometry width="50" height="50" relative="1" as="geometry">
            <mxPoint x="410" y="922.7058679917279" as="sourcePoint" />
            <mxPoint x="412" y="100" as="targetPoint" />
          </mxGeometry>
        </mxCell>
        <mxCell id="eMWsL_UccbmSe35L0zAl-42" style="edgeStyle=orthogonalEdgeStyle;rounded=0;orthogonalLoop=1;jettySize=auto;html=1;strokeColor=#6c8ebf;fontColor=#393C56;fillColor=#dae8fc;fontSize=15;fontStyle=1" parent="1" source="eMWsL_UccbmSe35L0zAl-32" edge="1">
          <mxGeometry relative="1" as="geometry">
            <mxPoint x="640" y="332.5" as="targetPoint" />
            <Array as="points">
              <mxPoint x="460" y="333" />
              <mxPoint x="460" y="333" />
            </Array>
          </mxGeometry>
        </mxCell>
        <mxCell id="eMWsL_UccbmSe35L0zAl-32" value="" style="line;strokeWidth=12;direction=south;html=1;strokeColor=#6c8ebf;fillColor=#dae8fc;fontStyle=1;fontSize=15;" parent="1" vertex="1">
          <mxGeometry x="404" y="270" width="16" height="160" as="geometry" />
        </mxCell>
        <mxCell id="eMWsL_UccbmSe35L0zAl-48" style="edgeStyle=orthogonalEdgeStyle;rounded=0;orthogonalLoop=1;jettySize=auto;html=1;strokeColor=#82b366;fontColor=#393C56;fillColor=#d5e8d4;fontSize=15;fontStyle=1" parent="1" edge="1">
          <mxGeometry relative="1" as="geometry">
            <mxPoint x="894.9999999999995" y="364.41" as="targetPoint" />
            <mxPoint x="649.9999999999995" y="364.46882352941185" as="sourcePoint" />
          </mxGeometry>
        </mxCell>
        <mxCell id="eMWsL_UccbmSe35L0zAl-40" value="" style="line;strokeWidth=12;direction=south;html=1;strokeColor=#82b366;fillColor=#d5e8d4;fontStyle=1;fontSize=15;" parent="1" vertex="1">
          <mxGeometry x="645" y="230" width="20" height="420" as="geometry" />
        </mxCell>
        <mxCell id="eMWsL_UccbmSe35L0zAl-43" value="&lt;font style=&quot;font-size: 15px;&quot;&gt;4.调用DaoAuthenticationProvider的authenticate()进行委托认证&lt;/font&gt;" style="text;html=1;align=center;verticalAlign=middle;whiteSpace=wrap;rounded=0;fontColor=#393C56;fontStyle=1;fontSize=15;" parent="1" vertex="1">
          <mxGeometry x="450" y="300" width="170" height="30" as="geometry" />
        </mxCell>
        <mxCell id="eMWsL_UccbmSe35L0zAl-50" style="edgeStyle=orthogonalEdgeStyle;rounded=0;orthogonalLoop=1;jettySize=auto;html=1;strokeColor=#9673a6;fontColor=#393C56;fillColor=#e1d5e7;fontSize=15;fontStyle=1" parent="1" edge="1">
          <mxGeometry relative="1" as="geometry">
            <mxPoint x="659.9999999999995" y="395" as="targetPoint" />
            <mxPoint x="904.9999999999995" y="395" as="sourcePoint" />
          </mxGeometry>
        </mxCell>
        <mxCell id="eMWsL_UccbmSe35L0zAl-53" style="edgeStyle=orthogonalEdgeStyle;rounded=0;orthogonalLoop=1;jettySize=auto;html=1;strokeColor=#9673a6;fontColor=#393C56;fillColor=#e1d5e7;fontSize=15;fontStyle=1" parent="1" source="eMWsL_UccbmSe35L0zAl-44" edge="1">
          <mxGeometry relative="1" as="geometry">
            <mxPoint x="920" y="480" as="targetPoint" />
            <Array as="points">
              <mxPoint x="990" y="420" />
              <mxPoint x="990" y="481" />
              <mxPoint x="920" y="481" />
            </Array>
          </mxGeometry>
        </mxCell>
        <mxCell id="eMWsL_UccbmSe35L0zAl-46" value="" style="endArrow=none;html=1;strokeWidth=2;rounded=0;strokeColor=#82b366;fontColor=#393C56;fillColor=#d5e8d4;fontStyle=1;dashed=1;dashPattern=8 8;fontSize=15;" parent="1" edge="1">
          <mxGeometry width="50" height="50" relative="1" as="geometry">
            <mxPoint x="654" y="690" as="sourcePoint" />
            <mxPoint x="654.41" y="100" as="targetPoint" />
          </mxGeometry>
        </mxCell>
        <mxCell id="eMWsL_UccbmSe35L0zAl-47" value="" style="endArrow=none;html=1;strokeWidth=2;rounded=0;strokeColor=#9673a6;fontColor=#393C56;fillColor=#e1d5e7;fontStyle=1;dashed=1;dashPattern=8 8;fontSize=15;" parent="1" source="eMWsL_UccbmSe35L0zAl-44" edge="1">
          <mxGeometry width="50" height="50" relative="1" as="geometry">
            <mxPoint x="904.41" y="635" as="sourcePoint" />
            <mxPoint x="904.8199999999999" y="95" as="targetPoint" />
          </mxGeometry>
        </mxCell>
        <mxCell id="eMWsL_UccbmSe35L0zAl-49" value="&lt;font style=&quot;font-size: 15px;&quot;&gt;5.UserDetailsService对象调用&lt;/font&gt;&lt;div style=&quot;font-size: 15px;&quot;&gt;&lt;font style=&quot;font-size: 15px;&quot;&gt;loadUserByUsername()获取用户信息&lt;/font&gt;&lt;/div&gt;" style="text;html=1;align=center;verticalAlign=middle;whiteSpace=wrap;rounded=0;fontColor=#393C56;fontStyle=1;fontSize=15;" parent="1" vertex="1">
          <mxGeometry x="680" y="317.5" width="170" height="30" as="geometry" />
        </mxCell>
        <mxCell id="eMWsL_UccbmSe35L0zAl-51" value="&lt;font style=&quot;font-size: 15px;&quot;&gt;6.返回UserDetails&lt;/font&gt;" style="text;html=1;align=center;verticalAlign=middle;whiteSpace=wrap;rounded=0;fontColor=#393C56;fontStyle=1;fontSize=15;" parent="1" vertex="1">
          <mxGeometry x="680" y="410" width="170" height="30" as="geometry" />
        </mxCell>
        <mxCell id="eMWsL_UccbmSe35L0zAl-52" value="&lt;font style=&quot;font-size: 15px;&quot;&gt;7.通过PasswordEncoder对比UserDetails中的密码和Authentication中的密码是否一致&lt;/font&gt;" style="text;html=1;align=center;verticalAlign=middle;whiteSpace=wrap;rounded=0;fontColor=#393C56;fontStyle=1;fontSize=15;" parent="1" vertex="1">
          <mxGeometry x="910" y="365" width="200" height="30" as="geometry" />
        </mxCell>
        <mxCell id="eMWsL_UccbmSe35L0zAl-55" style="edgeStyle=orthogonalEdgeStyle;rounded=0;orthogonalLoop=1;jettySize=auto;html=1;strokeColor=#E07A5F;fontColor=#393C56;fillColor=#F2CC8F;entryX=0.229;entryY=0.468;entryDx=0;entryDy=0;entryPerimeter=0;fontSize=15;fontStyle=1" parent="1" edge="1">
          <mxGeometry relative="1" as="geometry">
            <mxPoint x="170" y="219.99882352941182" as="sourcePoint" />
            <mxPoint x="160.63999999999987" y="267.8" as="targetPoint" />
            <Array as="points">
              <mxPoint x="240" y="219.94" />
              <mxPoint x="240" y="267.94" />
            </Array>
          </mxGeometry>
        </mxCell>
        <mxCell id="eMWsL_UccbmSe35L0zAl-56" value="" style="endArrow=none;html=1;strokeWidth=2;rounded=0;strokeColor=#b46504;fontColor=#393C56;fillColor=#fad7ac;fontStyle=1;dashed=1;dashPattern=8 8;fontSize=15;" parent="1" source="eMWsL_UccbmSe35L0zAl-59" edge="1">
          <mxGeometry width="50" height="50" relative="1" as="geometry">
            <mxPoint x="1134.41" y="630" as="sourcePoint" />
            <mxPoint x="1134.82" y="90" as="targetPoint" />
          </mxGeometry>
        </mxCell>
        <mxCell id="eMWsL_UccbmSe35L0zAl-58" value="" style="endArrow=none;html=1;strokeWidth=2;rounded=0;strokeColor=#b46504;fontColor=#393C56;fillColor=#fad7ac;fontStyle=1;dashed=1;dashPattern=8 8;fontSize=15;" parent="1" target="eMWsL_UccbmSe35L0zAl-59" edge="1">
          <mxGeometry width="50" height="50" relative="1" as="geometry">
            <mxPoint x="1134" y="836.7058967141544" as="sourcePoint" />
            <mxPoint x="1134.82" y="90" as="targetPoint" />
          </mxGeometry>
        </mxCell>
        <mxCell id="eMWsL_UccbmSe35L0zAl-59" value="" style="line;strokeWidth=12;direction=south;html=1;strokeColor=#b46504;fillColor=#fad7ac;fontStyle=1;fontSize=15;" parent="1" vertex="1">
          <mxGeometry x="1125" y="425" width="20" height="340" as="geometry" />
        </mxCell>
        <mxCell id="eMWsL_UccbmSe35L0zAl-61" value="" style="endArrow=none;html=1;strokeWidth=2;rounded=0;strokeColor=#9673a6;fontColor=#393C56;fillColor=#e1d5e7;fontStyle=1;dashed=1;dashPattern=8 8;fontSize=15;" parent="1" target="eMWsL_UccbmSe35L0zAl-44" edge="1">
          <mxGeometry width="50" height="50" relative="1" as="geometry">
            <mxPoint x="904" y="690.9412339154412" as="sourcePoint" />
            <mxPoint x="904.8199999999999" y="95" as="targetPoint" />
          </mxGeometry>
        </mxCell>
        <mxCell id="eMWsL_UccbmSe35L0zAl-62" style="edgeStyle=orthogonalEdgeStyle;rounded=0;orthogonalLoop=1;jettySize=auto;html=1;strokeColor=#56517e;fontColor=#393C56;fillColor=#d0cee2;fontSize=15;fontStyle=1" parent="1" source="eMWsL_UccbmSe35L0zAl-44" edge="1">
          <mxGeometry relative="1" as="geometry">
            <mxPoint x="920" y="580" as="targetPoint" />
            <Array as="points">
              <mxPoint x="980" y="520" />
              <mxPoint x="980" y="581" />
              <mxPoint x="920" y="581" />
            </Array>
          </mxGeometry>
        </mxCell>
        <mxCell id="eMWsL_UccbmSe35L0zAl-44" value="" style="line;strokeWidth=12;direction=south;html=1;strokeColor=#9673a6;fillColor=#e1d5e7;fontStyle=1;fontSize=15;" parent="1" vertex="1">
          <mxGeometry x="895" y="270" width="20" height="400" as="geometry" />
        </mxCell>
        <mxCell id="eMWsL_UccbmSe35L0zAl-63" value="&lt;font style=&quot;font-size: 15px;&quot;&gt;8.如果密码验证一致，就把UserDetails中的权限信息填充到Authentication对象中&lt;/font&gt;" style="text;html=1;align=center;verticalAlign=middle;whiteSpace=wrap;rounded=0;fontColor=#393C56;fontStyle=1;fontSize=15;" parent="1" vertex="1">
          <mxGeometry x="902.5" y="600" width="215" height="30" as="geometry" />
        </mxCell>
        <mxCell id="eMWsL_UccbmSe35L0zAl-67" value="&lt;font style=&quot;font-size: 15px;&quot;&gt;9.返回Authentication对象&lt;/font&gt;" style="text;html=1;align=center;verticalAlign=middle;whiteSpace=wrap;rounded=0;fontColor=#393C56;fontStyle=1;fontSize=15;" parent="1" vertex="1">
          <mxGeometry x="225" y="580" width="170" height="30" as="geometry" />
        </mxCell>
        <mxCell id="eMWsL_UccbmSe35L0zAl-69" style="edgeStyle=orthogonalEdgeStyle;rounded=0;orthogonalLoop=1;jettySize=auto;html=1;entryX=0.461;entryY=0.374;entryDx=0;entryDy=0;entryPerimeter=0;strokeColor=#82b366;fontColor=#393C56;fillColor=#d5e8d4;fontSize=15;fontStyle=1" parent="1" edge="1">
          <mxGeometry relative="1" as="geometry">
            <mxPoint x="652.4799999999996" y="619.998823529412" as="sourcePoint" />
            <mxPoint x="169.99999999999997" y="620.44" as="targetPoint" />
          </mxGeometry>
        </mxCell>
        <mxCell id="eMWsL_UccbmSe35L0zAl-71" value="&lt;font style=&quot;font-size: 15px;&quot;&gt;通过SecurityContextHolder.getContext().setAuthentication(value)把Authentication保存到上下文中&lt;/font&gt;" style="text;html=1;align=center;verticalAlign=middle;whiteSpace=wrap;rounded=0;fontColor=#393C56;fontStyle=1;fontSize=15;" parent="1" vertex="1">
          <mxGeometry x="460" y="710" width="170" height="30" as="geometry" />
        </mxCell>
        <mxCell id="N7aCzlytlaKj-szJmKl3-1" value="&lt;span style=&quot;font-size: 15px;&quot;&gt;&lt;font style=&quot;font-size: 15px;&quot;&gt;5.1 根据用户名去查询这个用户以及这个用户所对应的权限信息&lt;/font&gt;&lt;/span&gt;&lt;div style=&quot;font-size: 15px;&quot;&gt;&lt;span style=&quot;font-size: 15px;&quot;&gt;&lt;font style=&quot;font-size: 15px;&quot;&gt;InMemoryUserDetailsManager是在内存中查找&lt;/font&gt;&lt;/span&gt;&lt;/div&gt;" style="text;html=1;align=center;verticalAlign=middle;whiteSpace=wrap;rounded=0;fontSize=15;fontStyle=1" parent="1" vertex="1">
          <mxGeometry x="1200" y="260" width="260" height="30" as="geometry" />
        </mxCell>
        <mxCell id="N7aCzlytlaKj-szJmKl3-3" value="&lt;span style=&quot;font-size: 15px;&quot;&gt;&lt;font style=&quot;font-size: 15px;&quot;&gt;&lt;span style=&quot;font-size: 15px;&quot;&gt;5.2把对应的用户信息，包括权限信息封装成UserDetails对象&lt;/span&gt;&lt;/font&gt;&lt;/span&gt;" style="text;html=1;align=center;verticalAlign=middle;whiteSpace=wrap;rounded=0;fontSize=15;fontStyle=1" parent="1" vertex="1">
          <mxGeometry x="1200" y="350" width="260" height="30" as="geometry" />
        </mxCell>
        <mxCell id="d6EP5hR2uDW9PPu6evcW-4" style="edgeStyle=orthogonalEdgeStyle;rounded=0;orthogonalLoop=1;jettySize=auto;html=1;dashed=1;endArrow=none;endFill=0;" edge="1" parent="1" source="d6EP5hR2uDW9PPu6evcW-1">
          <mxGeometry relative="1" as="geometry">
            <mxPoint x="240" y="1710" as="targetPoint" />
          </mxGeometry>
        </mxCell>
        <mxCell id="d6EP5hR2uDW9PPu6evcW-1" value="&lt;span style=&quot;font-size: 16px;&quot;&gt;&lt;b&gt;前端&lt;/b&gt;&lt;/span&gt;" style="rounded=0;whiteSpace=wrap;html=1;fillColor=#d5e8d4;strokeColor=#82b366;" vertex="1" parent="1">
          <mxGeometry x="180" y="1020" width="120" height="60" as="geometry" />
        </mxCell>
        <mxCell id="d6EP5hR2uDW9PPu6evcW-5" style="edgeStyle=orthogonalEdgeStyle;rounded=0;orthogonalLoop=1;jettySize=auto;html=1;dashed=1;endArrow=none;endFill=0;" edge="1" parent="1" source="d6EP5hR2uDW9PPu6evcW-2">
          <mxGeometry relative="1" as="geometry">
            <mxPoint x="750" y="1700" as="targetPoint" />
          </mxGeometry>
        </mxCell>
        <mxCell id="d6EP5hR2uDW9PPu6evcW-2" value="&lt;span style=&quot;font-size: 16px;&quot;&gt;&lt;b&gt;服务器&lt;/b&gt;&lt;/span&gt;" style="rounded=0;whiteSpace=wrap;html=1;fillColor=#f8cecc;strokeColor=#b85450;" vertex="1" parent="1">
          <mxGeometry x="690" y="1020" width="120" height="60" as="geometry" />
        </mxCell>
        <mxCell id="d6EP5hR2uDW9PPu6evcW-8" value="" style="endArrow=classic;html=1;rounded=0;" edge="1" parent="1">
          <mxGeometry width="50" height="50" relative="1" as="geometry">
            <mxPoint x="240" y="1120" as="sourcePoint" />
            <mxPoint x="750" y="1120" as="targetPoint" />
          </mxGeometry>
        </mxCell>
        <mxCell id="d6EP5hR2uDW9PPu6evcW-9" value="&lt;b style=&quot;&quot;&gt;&lt;font style=&quot;font-size: 14px;&quot;&gt;1.携带用户名，密码来访问接口&lt;/font&gt;&lt;/b&gt;" style="text;html=1;align=center;verticalAlign=middle;whiteSpace=wrap;rounded=0;fontSize=18;" vertex="1" parent="1">
          <mxGeometry x="360" y="1090" width="240" height="30" as="geometry" />
        </mxCell>
        <mxCell id="d6EP5hR2uDW9PPu6evcW-10" value="" style="endArrow=none;html=1;rounded=0;endFill=0;" edge="1" parent="1">
          <mxGeometry width="50" height="50" relative="1" as="geometry">
            <mxPoint x="750" y="1160" as="sourcePoint" />
            <mxPoint x="830" y="1160" as="targetPoint" />
          </mxGeometry>
        </mxCell>
        <mxCell id="d6EP5hR2uDW9PPu6evcW-11" value="" style="endArrow=none;html=1;rounded=0;endFill=0;" edge="1" parent="1">
          <mxGeometry width="50" height="50" relative="1" as="geometry">
            <mxPoint x="830" y="1160" as="sourcePoint" />
            <mxPoint x="830" y="1200" as="targetPoint" />
          </mxGeometry>
        </mxCell>
        <mxCell id="d6EP5hR2uDW9PPu6evcW-12" value="" style="endArrow=classic;html=1;rounded=0;" edge="1" parent="1">
          <mxGeometry width="50" height="50" relative="1" as="geometry">
            <mxPoint x="830" y="1200" as="sourcePoint" />
            <mxPoint x="750" y="1200" as="targetPoint" />
          </mxGeometry>
        </mxCell>
        <mxCell id="d6EP5hR2uDW9PPu6evcW-13" value="&lt;b style=&quot;&quot;&gt;&lt;font style=&quot;font-size: 14px;&quot;&gt;2.和数据库中的用户名，密码进行校验&lt;/font&gt;&lt;/b&gt;" style="text;html=1;align=center;verticalAlign=middle;whiteSpace=wrap;rounded=0;fontSize=18;" vertex="1" parent="1">
          <mxGeometry x="750" y="1120" width="240" height="30" as="geometry" />
        </mxCell>
        <mxCell id="d6EP5hR2uDW9PPu6evcW-14" value="" style="endArrow=none;html=1;rounded=0;endFill=0;" edge="1" parent="1">
          <mxGeometry width="50" height="50" relative="1" as="geometry">
            <mxPoint x="750" y="1240" as="sourcePoint" />
            <mxPoint x="830" y="1240" as="targetPoint" />
          </mxGeometry>
        </mxCell>
        <mxCell id="d6EP5hR2uDW9PPu6evcW-15" value="" style="endArrow=none;html=1;rounded=0;endFill=0;" edge="1" parent="1">
          <mxGeometry width="50" height="50" relative="1" as="geometry">
            <mxPoint x="830" y="1240" as="sourcePoint" />
            <mxPoint x="830" y="1280" as="targetPoint" />
          </mxGeometry>
        </mxCell>
        <mxCell id="d6EP5hR2uDW9PPu6evcW-16" value="" style="endArrow=classic;html=1;rounded=0;" edge="1" parent="1">
          <mxGeometry width="50" height="50" relative="1" as="geometry">
            <mxPoint x="830" y="1280" as="sourcePoint" />
            <mxPoint x="750" y="1280" as="targetPoint" />
          </mxGeometry>
        </mxCell>
        <mxCell id="d6EP5hR2uDW9PPu6evcW-17" value="&lt;b style=&quot;&quot;&gt;&lt;font style=&quot;font-size: 14px;&quot;&gt;3.如果正确，则使用用户id/用户名生成jwt&lt;/font&gt;&lt;/b&gt;" style="text;html=1;align=center;verticalAlign=middle;whiteSpace=wrap;rounded=0;fontSize=18;" vertex="1" parent="1">
          <mxGeometry x="750" y="1210" width="260" height="30" as="geometry" />
        </mxCell>
        <mxCell id="d6EP5hR2uDW9PPu6evcW-18" value="" style="endArrow=classic;html=1;rounded=0;" edge="1" parent="1">
          <mxGeometry width="50" height="50" relative="1" as="geometry">
            <mxPoint x="750" y="1300" as="sourcePoint" />
            <mxPoint x="240" y="1300" as="targetPoint" />
          </mxGeometry>
        </mxCell>
        <mxCell id="d6EP5hR2uDW9PPu6evcW-19" value="&lt;b style=&quot;&quot;&gt;&lt;font style=&quot;font-size: 14px;&quot;&gt;4.返回给前端&lt;/font&gt;&lt;/b&gt;" style="text;html=1;align=center;verticalAlign=middle;whiteSpace=wrap;rounded=0;fontSize=18;" vertex="1" parent="1">
          <mxGeometry x="360" y="1260" width="240" height="30" as="geometry" />
        </mxCell>
        <mxCell id="d6EP5hR2uDW9PPu6evcW-20" value="" style="endArrow=classic;html=1;rounded=0;" edge="1" parent="1">
          <mxGeometry width="50" height="50" relative="1" as="geometry">
            <mxPoint x="240" y="1400" as="sourcePoint" />
            <mxPoint x="750" y="1400" as="targetPoint" />
          </mxGeometry>
        </mxCell>
        <mxCell id="d6EP5hR2uDW9PPu6evcW-21" value="&lt;b style=&quot;&quot;&gt;&lt;font style=&quot;font-size: 14px;&quot;&gt;5.登录后，其他访问请求的请求头都要携带token&lt;/font&gt;&lt;/b&gt;" style="text;html=1;align=center;verticalAlign=middle;whiteSpace=wrap;rounded=0;fontSize=18;" vertex="1" parent="1">
          <mxGeometry x="340" y="1360" width="240" height="30" as="geometry" />
        </mxCell>
        <mxCell id="d6EP5hR2uDW9PPu6evcW-22" value="" style="endArrow=none;html=1;rounded=0;endFill=0;" edge="1" parent="1">
          <mxGeometry width="50" height="50" relative="1" as="geometry">
            <mxPoint x="750" y="1440" as="sourcePoint" />
            <mxPoint x="830" y="1440" as="targetPoint" />
          </mxGeometry>
        </mxCell>
        <mxCell id="d6EP5hR2uDW9PPu6evcW-23" value="" style="endArrow=none;html=1;rounded=0;endFill=0;" edge="1" parent="1">
          <mxGeometry width="50" height="50" relative="1" as="geometry">
            <mxPoint x="830" y="1440" as="sourcePoint" />
            <mxPoint x="830" y="1480" as="targetPoint" />
          </mxGeometry>
        </mxCell>
        <mxCell id="d6EP5hR2uDW9PPu6evcW-24" value="&lt;b style=&quot;&quot;&gt;&lt;font style=&quot;font-size: 14px;&quot;&gt;6.对请求头的token进行解析，获得用户id信息&lt;/font&gt;&lt;/b&gt;" style="text;html=1;align=center;verticalAlign=middle;whiteSpace=wrap;rounded=0;fontSize=18;" vertex="1" parent="1">
          <mxGeometry x="750" y="1400" width="180" height="30" as="geometry" />
        </mxCell>
        <mxCell id="d6EP5hR2uDW9PPu6evcW-25" value="" style="endArrow=classic;html=1;rounded=0;" edge="1" parent="1">
          <mxGeometry width="50" height="50" relative="1" as="geometry">
            <mxPoint x="830" y="1480" as="sourcePoint" />
            <mxPoint x="750" y="1480" as="targetPoint" />
          </mxGeometry>
        </mxCell>
        <mxCell id="d6EP5hR2uDW9PPu6evcW-26" value="" style="endArrow=none;html=1;rounded=0;endFill=0;" edge="1" parent="1">
          <mxGeometry width="50" height="50" relative="1" as="geometry">
            <mxPoint x="750" y="1520" as="sourcePoint" />
            <mxPoint x="830" y="1520" as="targetPoint" />
          </mxGeometry>
        </mxCell>
        <mxCell id="d6EP5hR2uDW9PPu6evcW-27" value="" style="endArrow=none;html=1;rounded=0;endFill=0;" edge="1" parent="1">
          <mxGeometry width="50" height="50" relative="1" as="geometry">
            <mxPoint x="830" y="1520" as="sourcePoint" />
            <mxPoint x="830" y="1560" as="targetPoint" />
          </mxGeometry>
        </mxCell>
        <mxCell id="d6EP5hR2uDW9PPu6evcW-28" value="" style="endArrow=classic;html=1;rounded=0;" edge="1" parent="1">
          <mxGeometry width="50" height="50" relative="1" as="geometry">
            <mxPoint x="830" y="1560" as="sourcePoint" />
            <mxPoint x="750" y="1560" as="targetPoint" />
          </mxGeometry>
        </mxCell>
        <mxCell id="d6EP5hR2uDW9PPu6evcW-29" value="&lt;b style=&quot;&quot;&gt;&lt;font style=&quot;font-size: 14px;&quot;&gt;7.根据用户id获取用户相关信息，如果有权限则允许访问资源&lt;/font&gt;&lt;/b&gt;" style="text;html=1;align=center;verticalAlign=middle;whiteSpace=wrap;rounded=0;fontSize=18;" vertex="1" parent="1">
          <mxGeometry x="770" y="1500" width="200" height="30" as="geometry" />
        </mxCell>
        <mxCell id="d6EP5hR2uDW9PPu6evcW-30" value="" style="endArrow=none;html=1;rounded=0;endFill=0;" edge="1" parent="1">
          <mxGeometry width="50" height="50" relative="1" as="geometry">
            <mxPoint x="750" y="1600" as="sourcePoint" />
            <mxPoint x="830" y="1600" as="targetPoint" />
          </mxGeometry>
        </mxCell>
        <mxCell id="d6EP5hR2uDW9PPu6evcW-31" value="" style="endArrow=none;html=1;rounded=0;endFill=0;" edge="1" parent="1">
          <mxGeometry width="50" height="50" relative="1" as="geometry">
            <mxPoint x="830" y="1600" as="sourcePoint" />
            <mxPoint x="830" y="1640" as="targetPoint" />
          </mxGeometry>
        </mxCell>
        <mxCell id="d6EP5hR2uDW9PPu6evcW-32" value="" style="endArrow=classic;html=1;rounded=0;" edge="1" parent="1">
          <mxGeometry width="50" height="50" relative="1" as="geometry">
            <mxPoint x="830" y="1640" as="sourcePoint" />
            <mxPoint x="750" y="1640" as="targetPoint" />
          </mxGeometry>
        </mxCell>
        <mxCell id="d6EP5hR2uDW9PPu6evcW-33" value="&lt;b style=&quot;&quot;&gt;&lt;font style=&quot;font-size: 14px;&quot;&gt;8.访问目标资源&lt;/font&gt;&lt;/b&gt;" style="text;html=1;align=center;verticalAlign=middle;whiteSpace=wrap;rounded=0;fontSize=18;" vertex="1" parent="1">
          <mxGeometry x="760" y="1590" width="240" height="30" as="geometry" />
        </mxCell>
        <mxCell id="d6EP5hR2uDW9PPu6evcW-34" value="" style="endArrow=classic;html=1;rounded=0;" edge="1" parent="1">
          <mxGeometry width="50" height="50" relative="1" as="geometry">
            <mxPoint x="750" y="1680" as="sourcePoint" />
            <mxPoint x="240" y="1680" as="targetPoint" />
          </mxGeometry>
        </mxCell>
        <mxCell id="d6EP5hR2uDW9PPu6evcW-35" value="&lt;b style=&quot;&quot;&gt;&lt;font style=&quot;font-size: 14px;&quot;&gt;9.返回给前端&lt;/font&gt;&lt;/b&gt;" style="text;html=1;align=center;verticalAlign=middle;whiteSpace=wrap;rounded=0;fontSize=18;" vertex="1" parent="1">
          <mxGeometry x="329" y="1640" width="240" height="30" as="geometry" />
        </mxCell>
        <mxCell id="d6EP5hR2uDW9PPu6evcW-37" value="&lt;span style=&quot;font-size: 16px;&quot;&gt;&lt;b&gt;&amp;nbsp;&lt;/b&gt;&lt;/span&gt;" style="rounded=0;whiteSpace=wrap;html=1;fillColor=#dae8fc;strokeColor=#6c8ebf;" vertex="1" parent="1">
          <mxGeometry x="490" y="-290" width="120" height="60" as="geometry" />
        </mxCell>
      </root>
    </mxGraphModel>
  </diagram>
  <diagram id="bpCIb4UKpZk9paET0MRf" name="第 2 页">
    <mxGraphModel dx="1042" dy="531" grid="1" gridSize="10" guides="1" tooltips="1" connect="1" arrows="1" fold="1" page="1" pageScale="1" pageWidth="827" pageHeight="1169" math="0" shadow="0">
      <root>
        <mxCell id="0" />
        <mxCell id="1" parent="0" />
        <mxCell id="ZPPDvsv1-LDWokelgp-k-19" value="&lt;span style=&quot;font-size: 16px;&quot;&gt;&lt;b&gt;&amp;nbsp;&lt;/b&gt;&lt;/span&gt;" style="rounded=0;whiteSpace=wrap;html=1;fillColor=#ffff88;strokeColor=#36393d;" vertex="1" parent="1">
          <mxGeometry x="380" y="570" width="280" height="380" as="geometry" />
        </mxCell>
        <mxCell id="ZPPDvsv1-LDWokelgp-k-4" style="edgeStyle=orthogonalEdgeStyle;rounded=0;orthogonalLoop=1;jettySize=auto;html=1;entryX=0;entryY=0.5;entryDx=0;entryDy=0;fontSize=15;" edge="1" parent="1" source="ZPPDvsv1-LDWokelgp-k-1" target="ZPPDvsv1-LDWokelgp-k-3">
          <mxGeometry relative="1" as="geometry" />
        </mxCell>
        <mxCell id="ZPPDvsv1-LDWokelgp-k-1" value="&lt;span style=&quot;font-size: 15px;&quot;&gt;&lt;b style=&quot;font-size: 15px;&quot;&gt;登录接口&lt;/b&gt;&lt;/span&gt;" style="rounded=0;whiteSpace=wrap;html=1;fillColor=#d5e8d4;strokeColor=#82b366;fontSize=15;" vertex="1" parent="1">
          <mxGeometry x="100" y="130" width="120" height="60" as="geometry" />
        </mxCell>
        <mxCell id="ZPPDvsv1-LDWokelgp-k-9" style="edgeStyle=orthogonalEdgeStyle;rounded=0;orthogonalLoop=1;jettySize=auto;html=1;" edge="1" parent="1" source="ZPPDvsv1-LDWokelgp-k-3" target="ZPPDvsv1-LDWokelgp-k-8">
          <mxGeometry relative="1" as="geometry" />
        </mxCell>
        <mxCell id="ZPPDvsv1-LDWokelgp-k-3" value="&lt;b style=&quot;font-size: 15px;&quot;&gt;&lt;font style=&quot;font-size: 15px;&quot;&gt;校验用户名和密码&lt;/font&gt;&lt;/b&gt;" style="rhombus;whiteSpace=wrap;html=1;fillColor=#f8cecc;strokeColor=#b85450;fontSize=15;" vertex="1" parent="1">
          <mxGeometry x="340" y="105" width="190" height="110" as="geometry" />
        </mxCell>
        <mxCell id="ZPPDvsv1-LDWokelgp-k-8" value="&lt;span style=&quot;font-size: 16px;&quot;&gt;&lt;b&gt;登录成功返回JWT+用户URL列表&lt;/b&gt;&lt;/span&gt;" style="rounded=0;whiteSpace=wrap;html=1;fillColor=#dae8fc;strokeColor=#6c8ebf;" vertex="1" parent="1">
          <mxGeometry x="620" y="130" width="120" height="60" as="geometry" />
        </mxCell>
        <mxCell id="ZPPDvsv1-LDWokelgp-k-14" style="edgeStyle=orthogonalEdgeStyle;rounded=0;orthogonalLoop=1;jettySize=auto;html=1;" edge="1" parent="1" source="ZPPDvsv1-LDWokelgp-k-10" target="ZPPDvsv1-LDWokelgp-k-11">
          <mxGeometry relative="1" as="geometry" />
        </mxCell>
        <mxCell id="ZPPDvsv1-LDWokelgp-k-10" value="&lt;span style=&quot;font-size: 15px;&quot;&gt;&lt;b style=&quot;font-size: 15px;&quot;&gt;登录接口&lt;/b&gt;&lt;/span&gt;" style="rounded=0;whiteSpace=wrap;html=1;fillColor=#d5e8d4;strokeColor=#82b366;fontSize=15;" vertex="1" parent="1">
          <mxGeometry x="120" y="480" width="120" height="60" as="geometry" />
        </mxCell>
        <mxCell id="ZPPDvsv1-LDWokelgp-k-11" value="&lt;span style=&quot;font-size: 16px;&quot;&gt;&lt;b&gt;登录成功返回JWT&lt;/b&gt;&lt;/span&gt;" style="rounded=0;whiteSpace=wrap;html=1;fillColor=#dae8fc;strokeColor=#6c8ebf;" vertex="1" parent="1">
          <mxGeometry x="500" y="480" width="170" height="60" as="geometry" />
        </mxCell>
        <mxCell id="ZPPDvsv1-LDWokelgp-k-21" style="edgeStyle=orthogonalEdgeStyle;rounded=0;orthogonalLoop=1;jettySize=auto;html=1;" edge="1" parent="1" source="ZPPDvsv1-LDWokelgp-k-15">
          <mxGeometry relative="1" as="geometry">
            <mxPoint x="370" y="700" as="targetPoint" />
          </mxGeometry>
        </mxCell>
        <mxCell id="ZPPDvsv1-LDWokelgp-k-15" value="&lt;span style=&quot;font-size: 16px;&quot;&gt;&lt;b&gt;校验&lt;/b&gt;&lt;/span&gt;" style="rounded=0;whiteSpace=wrap;html=1;fillColor=#f8cecc;strokeColor=#b85450;" vertex="1" parent="1">
          <mxGeometry x="110" y="670" width="120" height="60" as="geometry" />
        </mxCell>
        <mxCell id="ZPPDvsv1-LDWokelgp-k-23" style="edgeStyle=orthogonalEdgeStyle;rounded=0;orthogonalLoop=1;jettySize=auto;html=1;entryX=0.5;entryY=0;entryDx=0;entryDy=0;" edge="1" parent="1" source="ZPPDvsv1-LDWokelgp-k-16" target="ZPPDvsv1-LDWokelgp-k-17">
          <mxGeometry relative="1" as="geometry" />
        </mxCell>
        <mxCell id="ZPPDvsv1-LDWokelgp-k-16" value="&lt;span style=&quot;font-size: 16px;&quot;&gt;&lt;b&gt;获取token&lt;/b&gt;&lt;/span&gt;" style="rounded=0;whiteSpace=wrap;html=1;fillColor=#e1d5e7;strokeColor=#9673a6;" vertex="1" parent="1">
          <mxGeometry x="450" y="630" width="120" height="60" as="geometry" />
        </mxCell>
        <mxCell id="ZPPDvsv1-LDWokelgp-k-24" style="edgeStyle=orthogonalEdgeStyle;rounded=0;orthogonalLoop=1;jettySize=auto;html=1;" edge="1" parent="1" source="ZPPDvsv1-LDWokelgp-k-17" target="ZPPDvsv1-LDWokelgp-k-18">
          <mxGeometry relative="1" as="geometry" />
        </mxCell>
        <mxCell id="ZPPDvsv1-LDWokelgp-k-17" value="&lt;span style=&quot;font-size: 16px;&quot;&gt;&lt;b&gt;解析token&lt;/b&gt;&lt;/span&gt;" style="rounded=0;whiteSpace=wrap;html=1;fillColor=#e1d5e7;strokeColor=#9673a6;" vertex="1" parent="1">
          <mxGeometry x="450" y="730" width="120" height="60" as="geometry" />
        </mxCell>
        <mxCell id="ZPPDvsv1-LDWokelgp-k-18" value="&lt;span style=&quot;font-size: 16px;&quot;&gt;&lt;b&gt;用户存入线程中&lt;/b&gt;&lt;/span&gt;" style="rounded=0;whiteSpace=wrap;html=1;fillColor=#e1d5e7;strokeColor=#9673a6;" vertex="1" parent="1">
          <mxGeometry x="450" y="840" width="120" height="60" as="geometry" />
        </mxCell>
        <mxCell id="ZPPDvsv1-LDWokelgp-k-20" value="&lt;b style=&quot;font-size: 18px;&quot;&gt;&lt;font style=&quot;font-size: 18px;&quot;&gt;自定义拦截器/过滤器&lt;/font&gt;&lt;/b&gt;" style="text;html=1;align=center;verticalAlign=middle;whiteSpace=wrap;rounded=0;fontSize=18;" vertex="1" parent="1">
          <mxGeometry x="430" y="590" width="190" height="30" as="geometry" />
        </mxCell>
      </root>
    </mxGraphModel>
  </diagram>
</mxfile>
